<svg width="217" height="217" viewBox="0 0 217 217" fill="none" xmlns="http://www.w3.org/2000/svg">
<path d="M170.044 40.4885V18H40.4337L22.5563 31.0197M22.5563 31.0197V60.018M22.5563 31.0197H47.1377M154.401 102.036V31.0197H47.1377M154.401 184.889V198.5H47.1377M22.5563 181.338V198.5H47.1377M47.1377 31.0197V198.5M22.5563 133.402V152.931M22.5563 87.241V106.77M34.847 67.1197C36.5226 73.0377 14.7345 77.1803 4.11992 70.0787C1.09516 68.055 4.67805 63.5689 9.14777 62.977M34.8478 113.872C36.5234 119.79 14.7353 123.933 4.12075 116.831C1.09598 114.807 4.67888 110.321 9.14859 109.73M34.8478 161.216C36.5234 167.134 14.7353 171.277 4.12075 164.175C1.09598 162.152 4.67888 157.666 9.1486 157.074M170.044 166.543V189.623H163.899M199.654 45.8148C204.682 48.7738 210.827 57.059 212.503 64.1607C210.827 121.566 156.078 166.543 120.882 169.502C113.06 168.318 107.474 164.175 103.004 159.441C102.669 159.085 102.352 158.689 102.055 158.257M199.654 45.8148C194.712 42.9064 189.784 44.0393 187.922 44.0393L175.072 75.4049C175.072 79.2977 179.605 81.9902 184.011 84.7983M199.654 45.8148L196.86 54.1M192.391 64.1607L184.011 84.7983M184.011 84.7983C184.964 85.4054 185.91 86.0179 186.804 86.6492C193.508 97.8934 176.02 105.224 167.81 115.056C154.96 130.443 151.608 138.136 145.463 141.687C142.067 143.649 139.758 141.358 137.083 137.98M130.379 141.687L137.083 137.98M137.083 137.98C134.721 134.996 132.075 131.165 128.144 128.667C123.116 131.034 104.122 142.279 99.6524 144.646C98.6617 149.369 99.734 154.881 102.055 158.257M119.206 148.197L102.055 158.257" stroke="#63B8EF" stroke-width="6" stroke-linecap="round" stroke-linejoin="round"/>
</svg>
