<svg width="217" height="217" viewBox="0 0 217 217" fill="none" xmlns="http://www.w3.org/2000/svg">
<path d="M44.0151 45C33.0151 58 37.5151 76 45.5151 83.5M45.5151 83.5H43.0153C33.0151 83.5 32.5151 103 43.0153 103C45.0312 103 47.2138 103 49.5151 103M45.5151 83.5H94.0151M53.5151 35.5C55.6818 33.5 61.8438 27.9948 60.5151 26.5C56.5151 22 53.5151 5 70.5151 5C86.0151 5 83.7424 19 81.0151 26.5C78.2878 34 103.515 41.5 103.515 63C103.515 72 100.015 77.5 94.0151 83.5M94.0151 83.5H98.5153C109.015 83.5 108.515 103 98.5153 103C96.7453 103 94.7251 103 92.5151 103M51.0151 60.5V65.5M90.0151 60.5V65.5M65.5151 64.5C68.5151 68.5 72.5151 68.5 75.0151 64.5M117.515 211C120.015 210 125.015 206.5 125.015 194.5C125.015 186.398 121.806 180.193 117.515 176.041M117.515 211C88.5151 211 29.8151 211 27.0151 211C23.5151 211 16.5151 209 16.0151 194.5C15.5151 180 27.5151 172 35.0151 170M117.515 211C141.015 211 188.515 211 190.515 211C193.015 211 199.015 207.5 199.015 203C199.015 196.5 199.015 203.524 199.015 188C199.015 179 188.015 170 184.015 170M105.515 170C96.0151 170 51.0151 170 35.0151 170M105.515 170C105.515 169.167 105.515 166 105.515 160C105.515 154 100.849 151.167 98.5153 150.5C96.7183 150.481 94.6966 150.461 92.5151 150.442M105.515 170C109.424 170.46 113.862 172.506 117.515 176.041M35.0151 170V160C35.0153 157 36.6155 150.9 43.0153 150.5C44.4689 150.409 47.3085 150.351 51.0151 150.317M92.5151 103C88.8485 109.794 83.7152 128.795 92.5151 150.442M92.5151 103C80.5389 103 62.9919 103 49.5151 103M92.5151 150.442C79.842 150.328 61.7754 150.219 51.0151 150.317M49.5151 103C54.0151 116 55.0151 129.135 51.0151 150.317M159.015 170C148.682 170 127.415 170 125.015 170M125.015 170C122.015 170 117.515 174.082 117.515 176.041M125.015 170C124.348 167.833 125.015 168 125.015 160C125.015 157.5 127.515 150.317 133.515 150.5M173.515 170H184.015M184.015 170V160C183.848 156.894 181.915 150.646 175.515 150.5M175.515 150.5C169.115 150.354 144.848 150.439 133.515 150.5M175.515 150.5C169.515 142.5 167.015 140 168.015 119M133.515 150.5C136.682 147.667 142.615 137.4 141.015 119M154.015 122C172.451 122 179.015 104.5 179.015 96C179.015 87.5 171.515 72.5 154.015 72.5C136.515 72.5 129.515 87 129.515 96C129.515 105 135.579 122 154.015 122Z" stroke="#63B8EF" stroke-width="6" stroke-linecap="round" stroke-linejoin="round"/>
</svg>
