<svg width="217" height="217" viewBox="0 0 217 217" fill="none" xmlns="http://www.w3.org/2000/svg">
<path d="M8.46588 118.677C5.25217 116.264 2.91699 107.942 8.46585 102.385C16.9017 93.9374 61.492 49.8881 85.5948 25.148M85.5948 25.148C100.548 19.1169 111.134 14.591 118.736 11.3727M85.5948 25.148L88.0051 42.0436M120.544 60.7495C100.057 81.2656 54.2612 127.125 44.0176 137.383C41.3101 139.797 34.3764 143.418 27.1456 137.383M120.544 60.7495C126.444 45.9786 130.868 35.3216 134.025 27.5617M120.544 60.7495L103.069 57.129M118.736 11.3727C133.191 5.25326 136.854 3.86148 139.224 5.8387C141.659 7.87103 140.54 11.5462 134.025 27.5617M118.736 11.3727L134.025 27.5617M88.0051 42.0436H103.069V57.129M88.0051 42.0436L75.3511 55.3188M103.069 57.129L65.71 94.4789M50.9349 79.4554C44.3459 72.9919 38.873 67.9905 37.9917 67.9905C35.5814 67.9905 27.1456 77.0417 27.1456 79.4554C27.1456 81.8691 62.6971 118.677 65.71 118.677C68.7228 118.677 77.1588 110.23 77.1588 107.816C77.1588 106.925 72.1504 101.265 65.71 94.4789M50.9349 79.4554L63.2997 66.7837M50.9349 79.4554C55.7149 84.1442 61.0821 89.6024 65.71 94.4789M33.7737 123.505C32.8096 123.022 24.1326 114.856 20.5171 110.833L28.3506 102.385M17.5043 127.125L18.1069 127.729M188.43 17.3036C191.641 14.1571 194.729 11.1336 197.673 8.25236C202.494 3.53505 210.93 3.73162 210.93 11.3727V201.345C211.331 204.564 210.206 211 202.494 211C201.203 211 196.709 211 189.84 211M188.43 17.3036L196.468 25.7514M188.43 17.3036C183.936 21.7065 178.493 26.9537 173.57 31.7856M173.57 31.7856L182.609 40.2334M173.57 31.7856C169.089 36.1845 164.455 40.7364 159.711 45.4018M168.75 54.7154L159.711 45.4018M159.711 45.4018C154.987 50.0468 150.153 54.8044 145.249 59.6357M154.288 69.1973L145.249 59.6357M145.249 59.6357C140.483 64.3315 135.65 69.0968 130.788 73.8961M139.826 83.0759L130.788 73.8961M130.788 73.8961C126.078 78.5442 121.342 83.224 116.611 87.9032M125.967 97.5579L116.611 87.9032M116.611 87.9032C111.879 92.583 107.153 97.2621 102.467 101.908M111.505 111.436L102.467 101.908M102.467 101.908C97.5911 106.741 92.758 111.539 88.005 116.264M97.0436 125.918L88.005 116.264M88.005 116.264C83.0846 121.156 78.2501 125.97 73.5433 130.665M83.1845 139.797L73.5433 130.665M73.5433 130.665C68.7782 135.419 64.1441 140.052 59.6842 144.522M68.7228 153.676L59.6842 144.522M59.6842 144.522C54.601 149.616 49.7442 154.498 45.1781 159.106M54.2611 168.157L45.1781 159.106M45.1781 159.106C40.0174 164.314 35.228 169.171 30.9027 173.588M39.7994 182.036L30.9027 173.588M30.9027 173.588C25.696 178.905 21.1617 183.584 17.4617 187.467M25.9402 196.518L17.4617 187.467M17.4617 187.467C11.2857 193.949 7.4337 198.215 6.65801 199.535C1.83744 207.742 8.66658 210.598 12.6837 211C20.911 211 30.3015 211 40.4019 211M40.4019 211V199.535M40.4019 211C47.1594 211 54.2346 211 61.4919 211M61.4919 199.535V211M61.4919 211C68.5909 211 75.8641 211 83.1845 211M83.1845 199.535V211M83.1845 211C90.2085 211 97.2759 211 104.274 211M104.274 199.535V211M104.274 211C111.625 211 118.899 211 125.967 211M125.967 199.535V211M125.967 211C133.264 211 140.342 211 147.057 211M147.057 199.535V211M147.057 211C154.851 211 162.156 211 168.75 211M168.75 199.535V211M168.75 211C177.06 211 184.239 211 189.84 211M189.84 199.535V211M175.378 89.7135V171.175C175.378 172.784 174.293 176.002 169.955 176.002C165.616 176.002 115.522 176.002 91.0179 176.002C88.005 176.002 84.9922 173.588 86.7999 169.968C93.4282 162.727 143.442 112.442 168.75 87.9032C171.562 85.4896 175.378 84.2827 175.378 89.7135Z" stroke="#63B8EF" stroke-width="6" stroke-linecap="round" stroke-linejoin="round"/>
</svg>
