<svg width="217" height="217" viewBox="0 0 217 217" fill="none" xmlns="http://www.w3.org/2000/svg">
<g clip-path="url(#clip0_19_12)">
<path d="M19.5 185.5C18 192.5 16.3675 206.632 17 206C18 205 37.1667 203.5 36.5 202.5C35.5 201 19.8183 184 19.5 185.5Z" fill="#63B8EF"/>
<path d="M79.5 62C71.3333 54.1667 49.5 39 44 44C36.4367 50.8758 50 69.1667 58.5 78M161 150.5C163 153.667 167.5 159.5 171.5 163.5C175.5 167.5 185.5 177.5 193 185.5C200.116 193.091 206.618 203.754 202.5 206.5C199.5 208.5 165.5 175.5 158.5 168M49 163.5L61 151.5M59 173.5L64.5 168M170.5 62L159 73.5M160.5 52L147 65.5M135.5 56.5L162 29.5L193 60.5L168.5 85.5M94.5 82.5C93.5 86 88.7 93 77.5 93M89.5 159C89.1667 152.167 85.3 138.2 72.5 137M133 87.5C133.667 93 139 103.9 155 103.5M51.5 139.5L26.5 165L57.5 196.5L79.5 175M79.5 175C88 192.5 111 186.5 111 178M79.5 175C57.5 173.5 61 156 64.5 150.5C48.8147 144.898 48.3807 129.317 56.7287 120M111 178C111 153.5 111 100 110 60.5M111 178C112.5 187 131 193.5 142 172.5M89.5 117.5C75.2502 109.232 63.2828 112.685 56.7287 120M56.7287 120C49.8191 107.333 43.3 79.7 72.5 70.5C75.5261 58.5 102.5 46 110 60.5M110 60.5C116.5 51 132 48.5 149.5 69.5C190.5 87.5 168.5 136 142 131M127.5 153C126 182 173.5 176 157.5 150.5C178 141.5 171 125.5 166.5 120M20.5 9.05387C30.5 10.0063 39.5 20.5539 39.5 27.5539C39.5 34.5539 31 40.0539 26 40.0539C21 40.0539 13.5 35.5539 15 29.0539C16.0385 24.5539 20.5 21.6924 18 20.5539C9.5 16.6829 3 24.0939 3 23.0539C3 20.0539 10.5 8.10148 20.5 9.05387ZM19.5 185.5C18 192.5 16.3675 206.632 17 206C18 205 37.1667 203.5 36.5 202.5C35.5 201 19.8183 184 19.5 185.5ZM172 19.5L203 51C211.5 43.5 213.5 39.5 213.5 33.5C213 29.5 214 25.5 205 17.5C196 9.49998 194 8.68748 187.5 9.49998C181 10.3125 179 12 172 19.5Z" stroke="#63B8EF" stroke-width="6" stroke-linecap="round" stroke-linejoin="round"/>
</g>
<defs>
<clipPath id="clip0_19_12">
<rect width="216.5" height="216.5" fill="white"/>
</clipPath>
</defs>
</svg>
