<svg width="217" height="217" viewBox="0 0 217 217" fill="none" xmlns="http://www.w3.org/2000/svg">
<path d="M11.4275 17.0813C6.65267 17.0813 4 20.7957 4 23.9796C4 28.7553 4 160.885 4 165.13C4 169.375 6.97099 171.498 10.3664 171.498C13.7618 171.498 70.4936 171.498 98.4351 171.498M64.4809 17.0814L37.9542 17.0813V10.1831C36.8931 2.75411 26.2824 1.16219 24.1603 10.1831V25.0408C24.1603 25.0408 25.2214 30.8779 31.0573 30.8779M64.4809 17.0814V10.1832C66.6031 1.16232 77.2137 2.75424 78.2748 10.1832V17.0814H104.802M64.4809 17.0814V25.041C64.4809 25.041 65.542 30.878 71.3779 30.878M104.802 17.0814V10.1832C106.924 1.16234 117.534 2.75426 118.595 10.1832V17.0814H145.122M104.802 17.0814V25.041C104.802 25.041 105.863 30.878 111.698 30.878M145.122 17.0814V10.1832C147.244 1.16234 157.855 2.75426 158.916 10.1832V17.0814M145.122 17.0814V25.041C145.122 25.041 146.183 30.878 152.019 30.878M171.118 17.0814C173.594 17.0814 178.546 18.9087 178.546 24.5105C178.546 30.8782 178.546 78.1052 178.546 100.923M109.046 131.169H101.618V138.598M141.939 101.453V90.8404H161.569V101.453M161.569 123.74V131.169M188.095 135.414L183.321 140.19M198.706 161.415H191.809M188.095 188.478L183.321 183.172M161.569 199.091V191.131M135.042 188.478L140.347 183.172M131.859 161.415H123.901M140.347 140.19L135.042 135.414M166.344 156.78L175.363 148.149M161.569 170.436V179.457M119.126 188.478C115.412 181.049 111.698 176.273 111.698 161.415C111.698 134.332 133.445 111.005 161.569 111.005C187.034 111.005 212.5 132.761 212.5 161.415C212.5 188.478 189.687 211.826 161.569 211.826C152.55 211.826 143.106 210.022 132.92 202.805M161.569 51.0424H141.939V71.2067H161.569V51.0424ZM121.248 51.0424H101.618V71.2067H121.248V51.0424ZM80.9275 51.0424H61.2977V71.2067H80.9275V51.0424ZM40.6069 51.0424H20.9771V71.2067H40.6069V51.0424ZM40.6069 90.8404H20.9771V111.005H40.6069V90.8404ZM80.9275 90.8404H61.2977V111.005H80.9275V90.8404ZM121.248 90.8404H101.618V111.005H121.248V90.8404ZM80.9275 131.169H61.2977V151.333H80.9275V131.169ZM40.6069 131.169H20.9771V151.333H40.6069V131.169ZM161.569 168.314C165.282 168.314 168.466 165.13 168.466 161.415C168.466 157.701 165.282 155.048 161.569 155.048C157.855 155.048 154.672 157.701 154.672 161.415C154.672 165.13 157.855 168.314 161.569 168.314Z" stroke="#63B8EF" stroke-width="6" stroke-linecap="round" stroke-linejoin="round"/>
</svg>
